<svg width="679" height="266" viewBox="0 0 679 266" fill="none" xmlns="http://www.w3.org/2000/svg">
<g clip-path="url(#clip0)">
<path d="M0 243H679" stroke="#EBEDF0"/>
<path d="M0 187H679" stroke="#EBEDF0"/>
<path d="M0 131H679" stroke="#EBEDF0"/>
<path d="M0 75H679" stroke="#EBEDF0"/>
<path d="M0 19H679" stroke="#EBEDF0"/>
<path d="M407 134L408 354.998" stroke="#EBEDF0"/>
<path d="M667.738 234V233.38L670.228 230.62C670.561 230.247 670.804 229.91 670.958 229.61C671.111 229.31 671.188 229.01 671.188 228.71C671.188 228.317 671.074 228.017 670.848 227.81C670.621 227.597 670.298 227.49 669.878 227.49C669.531 227.49 669.191 227.56 668.858 227.7C668.524 227.833 668.191 228.037 667.858 228.31L667.548 227.68C667.828 227.413 668.181 227.2 668.608 227.04C669.034 226.88 669.464 226.8 669.898 226.8C670.331 226.8 670.704 226.877 671.018 227.03C671.338 227.177 671.584 227.39 671.758 227.67C671.931 227.95 672.018 228.283 672.018 228.67C672.018 229.077 671.924 229.47 671.738 229.85C671.558 230.223 671.254 230.643 670.828 231.11L668.428 233.71L668.368 233.31H672.318V234H667.738ZM676.004 234.08C675.191 234.08 674.571 233.773 674.144 233.16C673.724 232.54 673.514 231.633 673.514 230.44C673.514 229.247 673.724 228.343 674.144 227.73C674.564 227.11 675.184 226.8 676.004 226.8C676.824 226.8 677.444 227.11 677.864 227.73C678.284 228.343 678.494 229.243 678.494 230.43C678.494 231.623 678.281 232.53 677.854 233.15C677.434 233.77 676.817 234.08 676.004 234.08ZM676.004 233.39C676.571 233.39 676.987 233.15 677.254 232.67C677.527 232.19 677.664 231.443 677.664 230.43C677.664 229.417 677.527 228.677 677.254 228.21C676.987 227.737 676.571 227.5 676.004 227.5C675.437 227.5 675.017 227.737 674.744 228.21C674.477 228.683 674.344 229.423 674.344 230.43C674.344 231.443 674.477 232.19 674.744 232.67C675.017 233.15 675.437 233.39 676.004 233.39Z" fill="#9FA2B4"/>
<path d="M669.838 178.07C669.378 178.07 668.934 177.993 668.508 177.84C668.088 177.687 667.731 177.47 667.438 177.19L667.758 176.56C668.078 176.833 668.408 177.04 668.748 177.18C669.088 177.313 669.444 177.38 669.818 177.38C670.324 177.38 670.708 177.267 670.968 177.04C671.234 176.813 671.368 176.48 671.368 176.04C671.368 175.6 671.231 175.273 670.958 175.06C670.684 174.84 670.274 174.73 669.728 174.73H668.908V174.04H669.568C670.094 174.04 670.498 173.923 670.778 173.69C671.058 173.457 671.198 173.123 671.198 172.69C671.198 172.303 671.081 172.007 670.848 171.8C670.621 171.593 670.298 171.49 669.878 171.49C669.524 171.49 669.181 171.56 668.848 171.7C668.514 171.833 668.184 172.037 667.858 172.31L667.548 171.68C667.834 171.407 668.188 171.193 668.608 171.04C669.028 170.88 669.461 170.8 669.908 170.8C670.334 170.8 670.708 170.877 671.028 171.03C671.348 171.177 671.591 171.387 671.758 171.66C671.931 171.933 672.018 172.257 672.018 172.63C672.018 173.07 671.901 173.447 671.668 173.76C671.441 174.067 671.128 174.277 670.728 174.39L670.698 174.29C671.178 174.39 671.544 174.593 671.798 174.9C672.051 175.207 672.178 175.597 672.178 176.07C672.178 176.69 671.968 177.18 671.548 177.54C671.128 177.893 670.558 178.07 669.838 178.07ZM676.004 178.08C675.191 178.08 674.571 177.773 674.144 177.16C673.724 176.54 673.514 175.633 673.514 174.44C673.514 173.247 673.724 172.343 674.144 171.73C674.564 171.11 675.184 170.8 676.004 170.8C676.824 170.8 677.444 171.11 677.864 171.73C678.284 172.343 678.494 173.243 678.494 174.43C678.494 175.623 678.281 176.53 677.854 177.15C677.434 177.77 676.817 178.08 676.004 178.08ZM676.004 177.39C676.571 177.39 676.987 177.15 677.254 176.67C677.527 176.19 677.664 175.443 677.664 174.43C677.664 173.417 677.527 172.677 677.254 172.21C676.987 171.737 676.571 171.5 676.004 171.5C675.437 171.5 675.017 171.737 674.744 172.21C674.477 172.683 674.344 173.423 674.344 174.43C674.344 175.443 674.477 176.19 674.744 176.67C675.017 177.15 675.437 177.39 676.004 177.39Z" fill="#9FA2B4"/>
<path d="M670.678 122V115.91H670.928L667.968 120.18L667.978 119.77H672.578V120.45H667.398V119.83L670.828 114.88H671.498V122H670.678ZM676.004 122.08C675.191 122.08 674.571 121.773 674.144 121.16C673.724 120.54 673.514 119.633 673.514 118.44C673.514 117.247 673.724 116.343 674.144 115.73C674.564 115.11 675.184 114.8 676.004 114.8C676.824 114.8 677.444 115.11 677.864 115.73C678.284 116.343 678.494 117.243 678.494 118.43C678.494 119.623 678.281 120.53 677.854 121.15C677.434 121.77 676.817 122.08 676.004 122.08ZM676.004 121.39C676.571 121.39 676.987 121.15 677.254 120.67C677.527 120.19 677.664 119.443 677.664 118.43C677.664 117.417 677.527 116.677 677.254 116.21C676.987 115.737 676.571 115.5 676.004 115.5C675.437 115.5 675.017 115.737 674.744 116.21C674.477 116.683 674.344 117.423 674.344 118.43C674.344 119.443 674.477 120.19 674.744 120.67C675.017 121.15 675.437 121.39 676.004 121.39Z" fill="#9FA2B4"/>
<path d="M670.018 66.07C669.584 66.07 669.158 65.9933 668.738 65.84C668.318 65.68 667.964 65.4633 667.678 65.19L667.988 64.56C668.314 64.8267 668.644 65.03 668.978 65.17C669.318 65.31 669.664 65.38 670.018 65.38C670.518 65.38 670.908 65.24 671.188 64.96C671.474 64.6733 671.618 64.2867 671.618 63.8C671.618 63.4867 671.554 63.2133 671.428 62.98C671.301 62.74 671.121 62.5533 670.888 62.42C670.661 62.2867 670.391 62.22 670.078 62.22C669.738 62.22 669.431 62.29 669.158 62.43C668.891 62.5633 668.654 62.77 668.448 63.05H667.878V58.88H672.148V59.56H668.698V62.44L668.438 62.41C668.631 62.13 668.878 61.9133 669.178 61.76C669.484 61.6067 669.828 61.53 670.208 61.53C670.661 61.53 671.054 61.6267 671.388 61.82C671.721 62.0067 671.978 62.27 672.158 62.61C672.338 62.95 672.428 63.3433 672.428 63.79C672.428 64.2367 672.328 64.6333 672.128 64.98C671.934 65.32 671.658 65.5867 671.298 65.78C670.938 65.9733 670.511 66.07 670.018 66.07ZM676.004 66.08C675.191 66.08 674.571 65.7733 674.144 65.16C673.724 64.54 673.514 63.6333 673.514 62.44C673.514 61.2467 673.724 60.3433 674.144 59.73C674.564 59.11 675.184 58.8 676.004 58.8C676.824 58.8 677.444 59.11 677.864 59.73C678.284 60.3433 678.494 61.2433 678.494 62.43C678.494 63.6233 678.281 64.53 677.854 65.15C677.434 65.77 676.817 66.08 676.004 66.08ZM676.004 65.39C676.571 65.39 676.987 65.15 677.254 64.67C677.527 64.19 677.664 63.4433 677.664 62.43C677.664 61.4167 677.527 60.6767 677.254 60.21C676.987 59.7367 676.571 59.5 676.004 59.5C675.437 59.5 675.017 59.7367 674.744 60.21C674.477 60.6833 674.344 61.4233 674.344 62.43C674.344 63.4433 674.477 64.19 674.744 64.67C675.017 65.15 675.437 65.39 676.004 65.39Z" fill="#9FA2B4"/>
<path d="M670.138 10.08C669.278 10.08 668.614 9.78333 668.148 9.19C667.681 8.59 667.448 7.73333 667.448 6.62C667.448 5.81333 667.554 5.12667 667.768 4.56C667.988 3.98667 668.301 3.55 668.708 3.25C669.121 2.95 669.614 2.8 670.188 2.8C670.601 2.8 671.001 2.87667 671.388 3.03C671.774 3.17667 672.118 3.39333 672.418 3.68L672.108 4.31C671.774 4.02333 671.451 3.81667 671.138 3.69C670.831 3.55667 670.521 3.49 670.208 3.49C669.594 3.49 669.118 3.76333 668.778 4.31C668.438 4.85 668.268 5.61667 668.268 6.61V7.47L668.148 7.2C668.201 6.86 668.324 6.56667 668.518 6.32C668.711 6.06667 668.951 5.87333 669.238 5.74C669.531 5.6 669.854 5.53 670.208 5.53C670.648 5.53 671.034 5.62667 671.368 5.82C671.701 6.00667 671.961 6.27 672.148 6.61C672.334 6.95 672.428 7.34333 672.428 7.79C672.428 8.23 672.328 8.62333 672.128 8.97C671.934 9.31667 671.664 9.59 671.318 9.79C670.978 9.98333 670.584 10.08 670.138 10.08ZM670.098 9.39C670.551 9.39 670.918 9.24667 671.198 8.96C671.478 8.66667 671.618 8.28 671.618 7.8C671.618 7.32667 671.478 6.94667 671.198 6.66C670.918 6.36667 670.548 6.22 670.088 6.22C669.781 6.22 669.508 6.29 669.268 6.43C669.028 6.56333 668.841 6.75 668.708 6.99C668.574 7.22333 668.508 7.49333 668.508 7.8C668.508 8.12 668.574 8.4 668.708 8.64C668.841 8.87333 669.028 9.05667 669.268 9.19C669.508 9.32333 669.784 9.39 670.098 9.39ZM676.004 10.08C675.191 10.08 674.571 9.77333 674.144 9.16C673.724 8.54 673.514 7.63333 673.514 6.44C673.514 5.24667 673.724 4.34333 674.144 3.73C674.564 3.11 675.184 2.8 676.004 2.8C676.824 2.8 677.444 3.11 677.864 3.73C678.284 4.34333 678.494 5.24333 678.494 6.43C678.494 7.62333 678.281 8.53 677.854 9.15C677.434 9.77 676.817 10.08 676.004 10.08ZM676.004 9.39C676.571 9.39 676.987 9.15 677.254 8.67C677.527 8.19 677.664 7.44333 677.664 6.43C677.664 5.41667 677.527 4.67667 677.254 4.21C676.987 3.73667 676.571 3.5 676.004 3.5C675.437 3.5 675.017 3.73667 674.744 4.21C674.477 4.68333 674.344 5.42333 674.344 6.43C674.344 7.44333 674.477 8.19 674.744 8.67C675.017 9.15 675.437 9.39 676.004 9.39Z" fill="#9FA2B4"/>
<mask id="mask0" mask-type="alpha" maskUnits="userSpaceOnUse" x="0" y="19" width="569" height="336">
<rect y="19" width="569" height="336" fill="#C4C4C4"/>
</mask>
<g mask="url(#mask0)">
<path opacity="0.1" d="M93.2776 188.886C46.9027 187.226 2.80325 265.21 -9.13147 297.727V400.5H588.719V144C533.391 141.5 515.895 85.1051 473.484 85.1051C431.073 85.1051 392.782 166.745 371.186 209.641C353.454 247.832 330.835 255.996 321.742 255.304C279.459 256.964 247.292 171.589 236.494 128.693C226.947 80.5386 216.197 70.5764 210.92 70.5765C202.065 70.5455 188.755 84.6905 175.116 132.844C161.476 180.998 139.88 194.42 130.787 195.112C118.068 196.08 102.939 188.886 93.2776 188.886Z" fill="url(#paint0_linear)"/>
<path d="M-8.68718 173.896C10.0722 164.593 24.0186 163.328 35.1964 166.493C46.403 169.667 55.0148 177.341 63.0091 186.327C67.0094 190.823 70.8123 195.597 74.7226 200.29C78.6194 204.967 82.6053 209.541 86.9154 213.556C95.5511 221.6 105.544 227.449 118.857 227.449V225.449C106.221 225.449 96.6915 219.929 88.2786 212.093C84.0645 208.167 80.1444 203.673 76.2591 199.01C72.3872 194.363 68.5319 189.526 64.5034 184.997C56.4401 175.934 47.5121 167.902 35.7413 164.569C23.9417 161.228 9.473 162.657 -9.57576 172.104L-8.68718 173.896ZM118.857 227.449C132.032 227.449 141.068 223.966 148.123 218.548C155.131 213.164 160.127 205.905 165.268 198.536C170.434 191.129 175.773 183.568 183.515 177.291C191.235 171.032 201.387 166.02 216.2 163.834L215.908 161.855C200.759 164.091 190.269 169.241 182.256 175.737C174.266 182.215 168.782 190.002 163.627 197.391C158.447 204.818 153.623 211.801 146.904 216.962C140.232 222.087 131.634 225.449 118.857 225.449V227.449ZM216.2 163.834C230.845 161.672 244.185 166.572 256.785 175.273C269.401 183.985 281.186 196.448 292.689 209.273C304.159 222.061 315.363 235.227 326.731 245.172C338.094 255.112 349.799 262 362.32 262V260C350.541 260 339.304 253.513 328.048 243.667C316.798 233.826 305.709 220.794 294.177 207.938C282.679 195.118 270.754 182.489 257.921 173.627C245.072 164.753 231.223 159.594 215.908 161.855L216.2 163.834ZM362.32 262C374.993 262 385.781 252.687 395.043 239.223C404.336 225.715 412.288 207.749 419.222 189.861C422.692 180.911 425.914 171.962 428.925 163.584C431.937 155.201 434.735 147.396 437.364 140.71C439.997 134.014 442.44 128.493 444.734 124.658C445.883 122.739 446.966 121.291 447.981 120.334C449.004 119.369 449.853 119 450.551 119V117C449.126 117 447.808 117.748 446.609 118.878C445.402 120.016 444.209 121.64 443.018 123.631C440.633 127.616 438.141 133.268 435.502 139.978C432.86 146.698 430.051 154.534 427.042 162.908C424.031 171.288 420.817 180.214 417.358 189.139C410.432 207.001 402.549 224.785 393.396 238.089C384.212 251.438 373.946 260 362.32 260V262ZM450.551 119C452.25 119 453.694 119.882 455.027 121.705C456.378 123.553 457.528 126.259 458.6 129.631C459.667 132.989 460.63 136.919 461.646 141.172C462.659 145.412 463.721 149.964 464.981 154.517C467.494 163.605 470.824 172.827 476.235 179.786C481.686 186.794 489.248 191.5 500.093 191.5V189.5C489.942 189.5 482.936 185.143 477.814 178.558C472.654 171.923 469.407 163.02 466.908 153.983C465.661 149.473 464.608 144.963 463.591 140.707C462.578 136.463 461.598 132.464 460.506 129.025C459.417 125.6 458.189 122.642 456.641 120.525C455.076 118.384 453.099 117 450.551 117V119ZM500.093 191.5C521.46 191.5 538.772 179.32 555.803 167.187C572.938 154.98 589.796 142.816 610.539 141.999L610.461 140.001C589.016 140.845 571.666 153.431 554.643 165.558C537.516 177.76 520.718 189.5 500.093 189.5V191.5Z" fill="#DFE0EB"/>
<path d="M92.8119 188.886L92.7759 189.886C92.7879 189.886 92.7999 189.886 92.8119 189.886L92.8119 188.886ZM130.15 195.112L130.074 194.115L130.15 195.112ZM209.919 70.5765L209.916 71.5765L209.919 71.5765L209.919 70.5765ZM235.377 128.693L234.396 128.887C234.399 128.903 234.403 128.92 234.407 128.936L235.377 128.693ZM320.238 255.304L320.314 254.307C320.275 254.304 320.237 254.303 320.198 254.305L320.238 255.304ZM369.457 209.641L368.563 209.193C368.558 209.202 368.553 209.212 368.549 209.221L369.457 209.641ZM-8.1922 298.07C-2.28562 281.904 11.6099 254.371 29.7721 231.105C38.8515 219.475 48.9688 208.947 59.6535 201.438C70.3407 193.926 81.5275 189.481 92.7759 189.886L92.8478 187.887C81.0142 187.461 69.4022 192.141 58.5035 199.801C47.6022 207.463 37.3465 218.152 28.1956 229.875C9.8973 253.315 -4.09688 281.033 -10.0707 297.384L-8.1922 298.07ZM92.8119 189.886C97.458 189.886 103.456 191.631 110.092 193.331C116.632 195.006 123.711 196.607 130.227 196.109L130.074 194.115C123.929 194.585 117.148 193.073 110.588 191.393C104.124 189.738 97.7832 187.886 92.8119 187.886L92.8119 189.886ZM130.227 196.109C135.114 195.736 142.975 192.002 151.272 182.432C159.594 172.834 168.422 157.297 175.24 133.116L173.315 132.573C166.556 156.545 157.846 171.797 149.761 181.121C141.653 190.474 134.239 193.797 130.074 194.115L130.227 196.109ZM175.24 133.116C182.017 109.081 188.692 93.6128 194.727 84.18C200.801 74.6875 206.055 71.5629 209.916 71.5765L209.923 69.5765C204.969 69.5591 199.191 73.4915 193.042 83.1022C186.855 92.7726 180.116 108.454 173.315 132.573L175.24 133.116ZM209.919 71.5765C210.91 71.5765 212.336 72.0486 214.111 73.6317C215.884 75.2132 217.945 77.8541 220.171 82.0459C224.624 90.4307 229.652 104.85 234.396 128.887L236.358 128.5C231.598 104.381 226.523 89.7427 221.937 81.1078C219.644 76.7897 217.45 73.9305 215.442 72.1392C213.436 70.3496 211.555 69.5765 209.919 69.5765L209.919 71.5765ZM234.407 128.936C239.795 150.438 250.514 182.593 265.179 209.19C272.51 222.486 280.854 234.445 290.052 242.986C299.249 251.527 309.389 256.733 320.277 256.303L320.198 254.305C310.04 254.705 300.394 249.862 291.413 241.521C282.433 233.181 274.209 221.426 266.93 208.224C252.374 181.824 241.708 149.844 236.347 128.45L234.407 128.936ZM320.161 256.301C329.797 257.038 352.621 248.451 370.364 210.06L368.549 209.221C350.99 247.213 328.782 254.954 320.314 254.307L320.161 256.301ZM370.351 210.089C381.114 188.612 395.983 157.552 413.43 131.849C422.152 118.999 431.488 107.536 441.236 99.2953C450.989 91.0497 461.065 86.1051 471.289 86.1051V84.1051C460.404 84.1051 449.883 89.3655 439.944 97.7679C430 106.175 420.546 117.804 411.775 130.725C394.235 156.566 379.297 187.774 368.563 209.193L370.351 210.089ZM471.289 86.1051C491.946 86.1051 506.554 99.8738 523.165 114.369C539.688 128.785 558.042 143.732 585.955 144.999L586.045 143.001C558.883 141.768 540.99 127.267 524.48 112.862C508.06 98.5339 492.85 84.1051 471.289 84.1051V86.1051Z" fill="#23B5B5"/>
<circle opacity="0.16" cx="407" cy="134" r="13" stroke="#23B5B5" stroke-width="2"/>
<g filter="url(#filter0_d)">
<circle cx="407" cy="134" r="7" fill="white"/>
<circle cx="407" cy="134" r="5" stroke="#23B5B5" stroke-width="4"/>
</g>
<g filter="url(#filter1_d)">
<mask id="path-19-outside-1" maskUnits="userSpaceOnUse" x="374" y="72" width="66" height="38" fill="black">
<rect fill="white" x="374" y="72" width="66" height="38"/>
<path fill-rule="evenodd" clip-rule="evenodd" d="M379 73H435C437.209 73 439 74.7908 439 77V99C439 101.209 437.209 103 435 103L414 103L407.26 108.777C407.111 108.905 406.889 108.905 406.74 108.777L400 103L379 103C376.791 103 375 101.209 375 99V77C375 74.7908 376.791 73 379 73Z"/>
</mask>
<path fill-rule="evenodd" clip-rule="evenodd" d="M379 73H435C437.209 73 439 74.7908 439 77V99C439 101.209 437.209 103 435 103L414 103L407.26 108.777C407.111 108.905 406.889 108.905 406.74 108.777L400 103L379 103C376.791 103 375 101.209 375 99V77C375 74.7908 376.791 73 379 73Z" fill="white"/>
<path d="M435 103V103.5V103ZM414 103V102.5H413.815L413.675 102.62L414 103ZM407.26 108.777L406.935 108.397L406.935 108.397L407.26 108.777ZM406.74 108.777L407.065 108.397L407.065 108.397L406.74 108.777ZM400 103L400.325 102.62L400.185 102.5H400V103ZM379 103V103.5V103ZM435 72.5H379V73.5H435V72.5ZM439.5 77C439.5 74.5147 437.485 72.5 435 72.5V73.5C436.933 73.5 438.5 75.067 438.5 77H439.5ZM439.5 99V77H438.5V99H439.5ZM435 103.5C437.485 103.5 439.5 101.485 439.5 99H438.5C438.5 100.933 436.933 102.5 435 102.5V103.5ZM414 103.5L435 103.5V102.5L414 102.5V103.5ZM413.675 102.62L406.935 108.397L407.586 109.156L414.325 103.38L413.675 102.62ZM406.935 108.397C406.972 108.365 407.028 108.365 407.065 108.397L406.414 109.156C406.751 109.445 407.249 109.445 407.586 109.156L406.935 108.397ZM407.065 108.397L400.325 102.62L399.675 103.38L406.414 109.156L407.065 108.397ZM379 103.5L400 103.5V102.5L379 102.5V103.5ZM374.5 99C374.5 101.485 376.515 103.5 379 103.5V102.5C377.067 102.5 375.5 100.933 375.5 99H374.5ZM374.5 77V99H375.5V77H374.5ZM379 72.5C376.515 72.5 374.5 74.5147 374.5 77H375.5C375.5 75.067 377.067 73.5 379 73.5V72.5Z" fill="#DFE0EB" mask="url(#path-19-outside-1)"/>
</g>
<path d="M393.486 93H391.96L390.714 89.682C390.583 89.3273 390.392 89.0846 390.14 88.954C389.888 88.814 389.543 88.744 389.104 88.744H386.92V93H385.492V83.032H389.594C390.686 83.032 391.521 83.2746 392.1 83.76C392.688 84.2453 392.982 84.9406 392.982 85.846C392.982 86.4993 392.809 87.0546 392.464 87.512C392.119 87.9693 391.629 88.2913 390.994 88.478C391.573 88.5806 391.993 88.9913 392.254 89.71L393.486 93ZM389.426 87.582C390.154 87.582 390.695 87.442 391.05 87.162C391.405 86.8726 391.582 86.4433 391.582 85.874C391.582 85.3046 391.405 84.8846 391.05 84.614C390.705 84.334 390.163 84.194 389.426 84.194H386.92V87.582H389.426ZM402.132 90.242C402.132 90.998 401.866 91.6326 401.334 92.146C400.802 92.65 400.097 92.958 399.22 93.07V94.624H398.044V93.098C396.737 93.014 395.673 92.608 394.852 91.88L395.37 90.802C395.808 91.1566 396.247 91.4226 396.686 91.6C397.124 91.7773 397.6 91.8846 398.114 91.922V88.66C397.47 88.492 396.933 88.3146 396.504 88.128C396.084 87.9413 395.729 87.666 395.44 87.302C395.16 86.9286 395.02 86.4433 395.02 85.846C395.02 85.342 395.146 84.8846 395.398 84.474C395.659 84.054 396.018 83.7133 396.476 83.452C396.933 83.1813 397.456 83.0133 398.044 82.948V81.408H399.22V82.948C399.77 83.0133 400.284 83.1486 400.76 83.354C401.245 83.5593 401.656 83.8206 401.992 84.138L401.474 85.216C400.783 84.6 400.013 84.2406 399.164 84.138V87.582C399.78 87.7313 400.288 87.8993 400.69 88.086C401.1 88.2633 401.441 88.5246 401.712 88.87C401.992 89.2153 402.132 89.6726 402.132 90.242ZM396.476 85.776C396.476 86.1866 396.616 86.5086 396.896 86.742C397.185 86.966 397.591 87.1526 398.114 87.302V84.124C397.6 84.1986 397.199 84.3806 396.91 84.67C396.62 84.9593 396.476 85.328 396.476 85.776ZM399.164 91.88C399.649 91.796 400.022 91.6186 400.284 91.348C400.545 91.068 400.676 90.7133 400.676 90.284C400.676 89.9386 400.545 89.6633 400.284 89.458C400.032 89.2526 399.658 89.0753 399.164 88.926V91.88ZM410.404 91.81V93H404.58V91.81H406.764V84.754L404.734 86.014V84.684L407.38 83.032H408.22V91.81H410.404ZM416.157 86.686C416.782 86.686 417.328 86.8213 417.795 87.092C418.271 87.3533 418.635 87.7266 418.887 88.212C419.148 88.688 419.279 89.2386 419.279 89.864C419.279 90.508 419.134 91.0726 418.845 91.558C418.565 92.0433 418.159 92.4213 417.627 92.692C417.095 92.9626 416.474 93.098 415.765 93.098C415.149 93.098 414.542 92.9906 413.945 92.776C413.348 92.5613 412.853 92.2673 412.461 91.894L412.965 90.83C413.889 91.558 414.827 91.922 415.779 91.922C416.442 91.922 416.955 91.7446 417.319 91.39C417.692 91.026 417.879 90.5266 417.879 89.892C417.879 89.2853 417.692 88.7953 417.319 88.422C416.955 88.0486 416.465 87.862 415.849 87.862C414.953 87.862 414.234 88.2026 413.693 88.884H412.755V83.032H418.859V84.194H414.183V87.358C414.715 86.91 415.373 86.686 416.157 86.686ZM424.275 93.112C423.118 93.112 422.236 92.678 421.629 91.81C421.023 90.942 420.719 89.6773 420.719 88.016C420.719 86.3546 421.023 85.09 421.629 84.222C422.236 83.354 423.118 82.92 424.275 82.92C425.433 82.92 426.315 83.354 426.921 84.222C427.528 85.0806 427.831 86.3406 427.831 88.002C427.831 89.6726 427.528 90.942 426.921 91.81C426.315 92.678 425.433 93.112 424.275 93.112ZM424.275 91.95C424.994 91.95 425.521 91.6326 425.857 90.998C426.203 90.354 426.375 89.3553 426.375 88.002C426.375 86.6486 426.207 85.6593 425.871 85.034C425.535 84.4086 425.003 84.096 424.275 84.096C423.557 84.096 423.025 84.4133 422.679 85.048C422.343 85.6733 422.175 86.658 422.175 88.002C422.175 89.3553 422.343 90.354 422.679 90.998C423.025 91.6326 423.557 91.95 424.275 91.95Z" fill="#252733"/>
</g>
</g>
<defs>
<filter id="filter0_d" x="398" y="126" width="18" height="18" filterUnits="userSpaceOnUse" color-interpolation-filters="sRGB">
<feFlood flood-opacity="0" result="BackgroundImageFix"/>
<feColorMatrix in="SourceAlpha" type="matrix" values="0 0 0 0 0 0 0 0 0 0 0 0 0 0 0 0 0 0 127 0" result="hardAlpha"/>
<feOffset dy="1"/>
<feGaussianBlur stdDeviation="1"/>
<feColorMatrix type="matrix" values="0 0 0 0 0.215686 0 0 0 0 0.317647 0 0 0 0 1 0 0 0 0.2 0"/>
<feBlend mode="normal" in2="BackgroundImageFix" result="effect1_dropShadow"/>
<feBlend mode="normal" in="SourceGraphic" in2="effect1_dropShadow" result="shape"/>
</filter>
<filter id="filter1_d" x="370.5" y="69.5" width="73" height="44.8732" filterUnits="userSpaceOnUse" color-interpolation-filters="sRGB">
<feFlood flood-opacity="0" result="BackgroundImageFix"/>
<feColorMatrix in="SourceAlpha" type="matrix" values="0 0 0 0 0 0 0 0 0 0 0 0 0 0 0 0 0 0 127 0" result="hardAlpha"/>
<feOffset dy="1"/>
<feGaussianBlur stdDeviation="2"/>
<feColorMatrix type="matrix" values="0 0 0 0 0 0 0 0 0 0 0 0 0 0 0 0 0 0 0.08 0"/>
<feBlend mode="normal" in2="BackgroundImageFix" result="effect1_dropShadow"/>
<feBlend mode="normal" in="SourceGraphic" in2="effect1_dropShadow" result="shape"/>
</filter>
<linearGradient id="paint0_linear" x1="-0.49519" y1="244.5" x2="569.33" y2="244.967" gradientUnits="userSpaceOnUse">
<stop stop-color="#23B5B5"/>
<stop offset="1" stop-color="#3751FF" stop-opacity="0"/>
</linearGradient>
<clipPath id="clip0">
<rect width="679" height="266" fill="white"/>
</clipPath>
</defs>
</svg>
